<mxfile host="app.diagrams.net" modified="2021-03-14T14:08:50.765Z" agent="5.0 (Windows NT 10.0; Win64; x64) AppleWebKit/537.36 (KHTML, like Gecko) Chrome/88.0.4324.190 Safari/537.36" etag="Ggvfo9RWhWFxN_tfEbxN" version="14.4.8" type="github">
  <diagram id="Vln7x5nQAG3eDWej_XeR" name="Page-1">
    <mxGraphModel dx="1422" dy="762" grid="1" gridSize="10" guides="1" tooltips="1" connect="1" arrows="1" fold="1" page="1" pageScale="1" pageWidth="827" pageHeight="1169" math="0" shadow="0">
      <root>
        <mxCell id="0" />
        <mxCell id="1" parent="0" />
        <mxCell id="yu0WvaubNt_8vUW_KWQr-36" value="" style="edgeStyle=orthogonalEdgeStyle;rounded=0;orthogonalLoop=1;jettySize=auto;html=1;" edge="1" parent="1" source="yu0WvaubNt_8vUW_KWQr-5" target="yu0WvaubNt_8vUW_KWQr-10">
          <mxGeometry relative="1" as="geometry" />
        </mxCell>
        <mxCell id="yu0WvaubNt_8vUW_KWQr-5" value="QR정보 Decode" style="rounded=0;whiteSpace=wrap;html=1;" vertex="1" parent="1">
          <mxGeometry x="260" y="200" width="120" height="40" as="geometry" />
        </mxCell>
        <mxCell id="yu0WvaubNt_8vUW_KWQr-6" value="" style="edgeStyle=orthogonalEdgeStyle;rounded=0;orthogonalLoop=1;jettySize=auto;html=1;" edge="1" parent="1" source="yu0WvaubNt_8vUW_KWQr-7" target="yu0WvaubNt_8vUW_KWQr-5">
          <mxGeometry relative="1" as="geometry" />
        </mxCell>
        <mxCell id="yu0WvaubNt_8vUW_KWQr-7" value="QR코드 &lt;span style=&quot;color: rgb(0 , 0 , 0) ; font-family: &amp;#34;helvetica&amp;#34; ; font-size: 12px ; font-style: normal ; font-weight: 400 ; letter-spacing: normal ; text-align: center ; text-indent: 0px ; text-transform: none ; word-spacing: 0px ; background-color: rgb(248 , 249 , 250) ; display: inline ; float: none&quot;&gt;인식&lt;/span&gt;" style="shape=parallelogram;perimeter=parallelogramPerimeter;whiteSpace=wrap;html=1;fixedSize=1;" vertex="1" parent="1">
          <mxGeometry x="260" y="120" width="120" height="40" as="geometry" />
        </mxCell>
        <mxCell id="yu0WvaubNt_8vUW_KWQr-37" value="" style="edgeStyle=orthogonalEdgeStyle;rounded=0;orthogonalLoop=1;jettySize=auto;html=1;" edge="1" parent="1" source="yu0WvaubNt_8vUW_KWQr-10">
          <mxGeometry relative="1" as="geometry">
            <mxPoint x="320" y="360" as="targetPoint" />
          </mxGeometry>
        </mxCell>
        <mxCell id="yu0WvaubNt_8vUW_KWQr-10" value="구매정보 저장&lt;br&gt;정리 및 Display" style="shape=display;whiteSpace=wrap;html=1;" vertex="1" parent="1">
          <mxGeometry x="260" y="280" width="120" height="40" as="geometry" />
        </mxCell>
        <mxCell id="yu0WvaubNt_8vUW_KWQr-22" style="edgeStyle=orthogonalEdgeStyle;rounded=0;orthogonalLoop=1;jettySize=auto;html=1;entryX=0.5;entryY=0;entryDx=0;entryDy=0;" edge="1" parent="1" source="yu0WvaubNt_8vUW_KWQr-23" target="yu0WvaubNt_8vUW_KWQr-7">
          <mxGeometry relative="1" as="geometry" />
        </mxCell>
        <mxCell id="yu0WvaubNt_8vUW_KWQr-23" value="start" style="rounded=1;whiteSpace=wrap;html=1;" vertex="1" parent="1">
          <mxGeometry x="272.5" y="60" width="95" height="20" as="geometry" />
        </mxCell>
        <mxCell id="yu0WvaubNt_8vUW_KWQr-28" style="edgeStyle=orthogonalEdgeStyle;rounded=0;orthogonalLoop=1;jettySize=auto;html=1;entryX=0;entryY=0.25;entryDx=0;entryDy=0;" edge="1" parent="1" source="yu0WvaubNt_8vUW_KWQr-29" target="yu0WvaubNt_8vUW_KWQr-23">
          <mxGeometry relative="1" as="geometry">
            <mxPoint x="80" y="70" as="targetPoint" />
            <Array as="points">
              <mxPoint x="190" y="460" />
              <mxPoint x="190" y="70" />
              <mxPoint x="273" y="70" />
            </Array>
          </mxGeometry>
        </mxCell>
        <mxCell id="yu0WvaubNt_8vUW_KWQr-29" value="결제정보 저장&lt;br&gt;end" style="rounded=1;whiteSpace=wrap;html=1;" vertex="1" parent="1">
          <mxGeometry x="260" y="440" width="120" height="40" as="geometry" />
        </mxCell>
        <mxCell id="yu0WvaubNt_8vUW_KWQr-30" value="save" style="rounded=0;whiteSpace=wrap;html=1;" vertex="1" parent="1">
          <mxGeometry x="160" y="230" width="60" height="30" as="geometry" />
        </mxCell>
        <mxCell id="yu0WvaubNt_8vUW_KWQr-46" value="" style="edgeStyle=orthogonalEdgeStyle;rounded=0;orthogonalLoop=1;jettySize=auto;html=1;" edge="1" parent="1" source="yu0WvaubNt_8vUW_KWQr-45" target="yu0WvaubNt_8vUW_KWQr-29">
          <mxGeometry relative="1" as="geometry" />
        </mxCell>
        <mxCell id="yu0WvaubNt_8vUW_KWQr-45" value="Exit" style="rounded=0;whiteSpace=wrap;html=1;" vertex="1" parent="1">
          <mxGeometry x="260" y="360" width="120" height="40" as="geometry" />
        </mxCell>
      </root>
    </mxGraphModel>
  </diagram>
</mxfile>
